<?xml version="1.0" encoding="UTF-8" standalone="no"?>
<!-- Created with Inkscape (http://www.inkscape.org/) -->

<svg
   xmlns:dc="http://purl.org/dc/elements/1.1/"
   xmlns:cc="http://creativecommons.org/ns#"
   xmlns:rdf="http://www.w3.org/1999/02/22-rdf-syntax-ns#"
   xmlns:svg="http://www.w3.org/2000/svg"
   xmlns="http://www.w3.org/2000/svg"
   xmlns:sodipodi="http://sodipodi.sourceforge.net/DTD/sodipodi-0.dtd"
   xmlns:inkscape="http://www.inkscape.org/namespaces/inkscape"
   width="210mm"
   height="297mm"
   viewBox="0 0 210 297"
   version="1.1"
   id="svg8"
   inkscape:version="0.92.3 (unknown)"
   sodipodi:docname="aliens.svg">
  <defs
     id="defs2" />
  <sodipodi:namedview
     id="base"
     pagecolor="#ffffff"
     bordercolor="#666666"
     borderopacity="1.0"
     inkscape:pageopacity="0.0"
     inkscape:pageshadow="2"
     inkscape:zoom="0.35"
     inkscape:cx="613.75943"
     inkscape:cy="586.34916"
     inkscape:document-units="mm"
     inkscape:current-layer="layer1"
     showgrid="false"
     inkscape:snap-global="false"
     inkscape:window-width="1853"
     inkscape:window-height="1025"
     inkscape:window-x="67"
     inkscape:window-y="27"
     inkscape:window-maximized="1" />
  <metadata
     id="metadata5">
    <rdf:RDF>
      <cc:Work
         rdf:about="">
        <dc:format>image/svg+xml</dc:format>
        <dc:type
           rdf:resource="http://purl.org/dc/dcmitype/StillImage" />
        <dc:title></dc:title>
      </cc:Work>
    </rdf:RDF>
  </metadata>
  <g
     inkscape:label="Layer 1"
     inkscape:groupmode="layer"
     id="layer1">
    <g
       id="g1035"
       style="opacity:1">
      <g
         id="g956"
         transform="matrix(0.9625,0,0,0.89915967,-20.070533,-4.100049)"
         style="">
        <g
           id="g952"
           style="">
          <rect
             ry="60.476189"
             y="79.285713"
             x="69.547623"
             height="179.91667"
             width="120.95238"
             id="rect936"
             style="opacity:1;fill:#4367bb;fill-opacity:1;stroke:#000000;stroke-width:0;stroke-linecap:round;stroke-linejoin:round;stroke-miterlimit:4;stroke-dasharray:none;stroke-opacity:1;paint-order:stroke fill markers" />
          <path
             inkscape:connector-curvature="0"
             id="path938"
             d="m 130.02381,148.07741 a 51.188783,55.987724 0 0 0 -41.071701,22.68225 51.188783,55.987724 0 0 0 41.071701,22.67497 51.188783,55.987724 0 0 0 41.0717,-22.68224 51.188783,55.987724 0 0 0 -41.0717,-22.67498 z"
             style="opacity:1;fill:#ffffff;fill-opacity:1;stroke:#000000;stroke-width:0;stroke-linecap:round;stroke-linejoin:round;stroke-miterlimit:4;stroke-dasharray:none;stroke-opacity:1;paint-order:stroke fill markers" />
          <circle
             r="15.875"
             cy="170.75595"
             cx="145.89882"
             id="circle940"
             style="opacity:1;fill:#008080;fill-opacity:1;stroke:#000000;stroke-width:0;stroke-linecap:round;stroke-linejoin:round;stroke-miterlimit:4;stroke-dasharray:none;stroke-opacity:1;paint-order:stroke fill markers" />
          <circle
             style="opacity:1;fill:#000000;fill-opacity:1;stroke:#000000;stroke-width:0;stroke-linecap:round;stroke-linejoin:round;stroke-miterlimit:4;stroke-dasharray:none;stroke-opacity:1;paint-order:stroke fill markers"
             id="circle942"
             cx="145.89882"
             cy="170.75595"
             r="11.717262" />
          <circle
             r="1.8708867"
             cy="162.56342"
             cx="151.54181"
             id="circle944"
             style="opacity:1;fill:#ffffff;fill-opacity:1;stroke:#000000;stroke-width:0;stroke-linecap:round;stroke-linejoin:round;stroke-miterlimit:4;stroke-dasharray:none;stroke-opacity:1;paint-order:stroke fill markers" />
          <path
             inkscape:connector-curvature="0"
             style="opacity:1;fill:#335092;fill-opacity:1;stroke:#000000;stroke-width:0;stroke-linecap:round;stroke-linejoin:round;stroke-miterlimit:4;stroke-dasharray:none;stroke-opacity:1;paint-order:stroke fill markers"
             d="m 96.124813,88.985973 c -16.0588,10.850292 -26.57719,29.225107 -26.57719,50.147327 v 58.96436 c 0,33.5038 26.97208,60.47589 60.475897,60.47589 16.07776,0 30.64929,-6.21359 41.46,-16.37729 -9.65726,6.52545 -21.31801,10.3296 -33.90025,10.3296 -33.50381,0 -60.476427,-26.97209 -60.476427,-60.47589 v -58.96436 c 0,-17.42661 7.3,-33.08355 19.01797,-44.099637 z"
             id="path946" />
          <circle
             r="9.8273811"
             cy="201.75"
             cx="97.51786"
             id="circle948"
             style="opacity:1;fill:#507cdf;fill-opacity:1;stroke:#000000;stroke-width:0;stroke-linecap:round;stroke-linejoin:round;stroke-miterlimit:4;stroke-dasharray:none;stroke-opacity:1;paint-order:stroke fill markers" />
          <circle
             style="opacity:1;fill:#507cdf;fill-opacity:1;stroke:#000000;stroke-width:0;stroke-linecap:round;stroke-linejoin:round;stroke-miterlimit:4;stroke-dasharray:none;stroke-opacity:1;paint-order:stroke fill markers"
             id="circle950"
             cx="174.625"
             cy="200.99405"
             r="9.8273811" />
        </g>
        <path
           style="fill:#335092;fill-opacity:1;stroke:#000000;stroke-width:0.16280703px;stroke-linecap:butt;stroke-linejoin:miter;stroke-opacity:1"
           d="m 106.30979,216.82418 c 0,0 24.66509,10.94818 47.43285,0.91234 -25.1394,21.44022 -47.43285,-0.91234 -47.43285,-0.91234 z"
           id="path954"
           inkscape:connector-curvature="0" />
      </g>
      <path
         inkscape:connector-curvature="0"
         id="path967"
         d="m 66.523823,136.73809 c 0,0 34.017847,-22.2861 74.839267,-1.20465 -46.113097,-31.321 -74.839267,1.20465 -74.839267,1.20465 z"
         style="fill:#335092;fill-opacity:1;stroke:none;stroke-width:0.23617361px;stroke-linecap:butt;stroke-linejoin:miter;stroke-opacity:1" />
    </g>
    <g
       id="g1005"
       transform="translate(128.5119,0.75595238)"
       style="opacity:1">
      <g
         id="g989"
         transform="matrix(0.9625,0,0,0.89915967,-298.26101,74.518999)"
         style="">
        <g
           id="g985"
           style="">
          <rect
             ry="60.476189"
             y="79.285713"
             x="69.547623"
             height="179.91667"
             width="120.95238"
             id="rect969"
             style="opacity:1;fill:#4367bb;fill-opacity:1;stroke:#000000;stroke-width:0;stroke-linecap:round;stroke-linejoin:round;stroke-miterlimit:4;stroke-dasharray:none;stroke-opacity:1;paint-order:stroke fill markers" />
          <path
             inkscape:connector-curvature="0"
             id="path971"
             d="m 130.02381,148.07741 a 51.188783,55.987724 0 0 0 -41.071701,22.68225 51.188783,55.987724 0 0 0 41.071701,22.67497 51.188783,55.987724 0 0 0 41.0717,-22.68224 51.188783,55.987724 0 0 0 -41.0717,-22.67498 z"
             style="opacity:1;fill:#ffffff;fill-opacity:1;stroke:#000000;stroke-width:0;stroke-linecap:round;stroke-linejoin:round;stroke-miterlimit:4;stroke-dasharray:none;stroke-opacity:1;paint-order:stroke fill markers" />
          <circle
             r="15.875"
             cy="170.75595"
             cx="145.89882"
             id="circle973"
             style="opacity:1;fill:#008080;fill-opacity:1;stroke:#000000;stroke-width:0;stroke-linecap:round;stroke-linejoin:round;stroke-miterlimit:4;stroke-dasharray:none;stroke-opacity:1;paint-order:stroke fill markers" />
          <circle
             style="opacity:1;fill:#000000;fill-opacity:1;stroke:#000000;stroke-width:0;stroke-linecap:round;stroke-linejoin:round;stroke-miterlimit:4;stroke-dasharray:none;stroke-opacity:1;paint-order:stroke fill markers"
             id="circle975"
             cx="145.89882"
             cy="170.75595"
             r="11.717262" />
          <circle
             r="1.8708867"
             cy="162.56342"
             cx="151.54181"
             id="circle977"
             style="opacity:1;fill:#ffffff;fill-opacity:1;stroke:#000000;stroke-width:0;stroke-linecap:round;stroke-linejoin:round;stroke-miterlimit:4;stroke-dasharray:none;stroke-opacity:1;paint-order:stroke fill markers" />
          <path
             inkscape:connector-curvature="0"
             style="opacity:1;fill:#335092;fill-opacity:1;stroke:#000000;stroke-width:0;stroke-linecap:round;stroke-linejoin:round;stroke-miterlimit:4;stroke-dasharray:none;stroke-opacity:1;paint-order:stroke fill markers"
             d="m 96.124813,88.985973 c -16.0588,10.850292 -26.57719,29.225107 -26.57719,50.147327 v 58.96436 c 0,33.5038 26.97208,60.47589 60.475897,60.47589 16.07776,0 30.64929,-6.21359 41.46,-16.37729 -9.65726,6.52545 -21.31801,10.3296 -33.90025,10.3296 -33.50381,0 -60.476427,-26.97209 -60.476427,-60.47589 v -58.96436 c 0,-17.42661 7.3,-33.08355 19.01797,-44.099637 z"
             id="path979" />
          <circle
             r="9.8273811"
             cy="201.75"
             cx="97.51786"
             id="circle981"
             style="opacity:1;fill:#507cdf;fill-opacity:1;stroke:#000000;stroke-width:0;stroke-linecap:round;stroke-linejoin:round;stroke-miterlimit:4;stroke-dasharray:none;stroke-opacity:1;paint-order:stroke fill markers" />
          <circle
             style="opacity:1;fill:#507cdf;fill-opacity:1;stroke:#000000;stroke-width:0;stroke-linecap:round;stroke-linejoin:round;stroke-miterlimit:4;stroke-dasharray:none;stroke-opacity:1;paint-order:stroke fill markers"
             id="circle983"
             cx="174.625"
             cy="200.99405"
             r="9.8273811" />
        </g>
        <path
           style="fill:#335092;fill-opacity:1;stroke:#000000;stroke-width:0.16280703px;stroke-linecap:butt;stroke-linejoin:miter;stroke-opacity:1"
           d="m 106.30979,216.82418 c 0,0 24.66509,10.94818 47.43285,0.91234 -25.1394,21.44022 -47.43285,-0.91234 -47.43285,-0.91234 z"
           id="path987"
           inkscape:connector-curvature="0" />
      </g>
      <path
         inkscape:connector-curvature="0"
         id="path991"
         d="m -213.17858,227.45238 c 0,0 36.47841,15.11905 80.88691,-1.5119 -45.20149,-47.625 -80.88691,1.5119 -80.88691,1.5119 z"
         style="fill:#335093;fill-opacity:1;stroke:none;stroke-width:0.27099061px;stroke-linecap:butt;stroke-linejoin:miter;stroke-opacity:1" />
    </g>
    <g
       id="g1021"
       transform="translate(203.35119,-21.166667)"
       style="opacity:1">
      <g
         transform="matrix(0.9625,0,0,0.89915967,-339.83839,-140.92743)"
         id="g934"
         style="">
        <g
           id="g930"
           style="">
          <rect
             style="opacity:1;fill:#4367bb;fill-opacity:1;stroke:#000000;stroke-width:0;stroke-linecap:round;stroke-linejoin:round;stroke-miterlimit:4;stroke-dasharray:none;stroke-opacity:1;paint-order:stroke fill markers"
             id="rect914"
             width="120.95238"
             height="179.91667"
             x="69.547623"
             y="79.285713"
             ry="60.476189" />
          <path
             style="opacity:1;fill:#ffffff;fill-opacity:1;stroke:#000000;stroke-width:0;stroke-linecap:round;stroke-linejoin:round;stroke-miterlimit:4;stroke-dasharray:none;stroke-opacity:1;paint-order:stroke fill markers"
             d="m 130.02381,148.07741 a 51.188783,55.987724 0 0 0 -41.071701,22.68225 51.188783,55.987724 0 0 0 41.071701,22.67497 51.188783,55.987724 0 0 0 41.0717,-22.68224 51.188783,55.987724 0 0 0 -41.0717,-22.67498 z"
             id="path916"
             inkscape:connector-curvature="0" />
          <circle
             style="opacity:1;fill:#008080;fill-opacity:1;stroke:#000000;stroke-width:0;stroke-linecap:round;stroke-linejoin:round;stroke-miterlimit:4;stroke-dasharray:none;stroke-opacity:1;paint-order:stroke fill markers"
             id="circle918"
             cx="145.89882"
             cy="170.75595"
             r="15.875" />
          <circle
             r="11.717262"
             cy="170.75595"
             cx="145.89882"
             id="circle920"
             style="opacity:1;fill:#000000;fill-opacity:1;stroke:#000000;stroke-width:0;stroke-linecap:round;stroke-linejoin:round;stroke-miterlimit:4;stroke-dasharray:none;stroke-opacity:1;paint-order:stroke fill markers" />
          <circle
             style="opacity:1;fill:#ffffff;fill-opacity:1;stroke:#000000;stroke-width:0;stroke-linecap:round;stroke-linejoin:round;stroke-miterlimit:4;stroke-dasharray:none;stroke-opacity:1;paint-order:stroke fill markers"
             id="circle922"
             cx="151.54181"
             cy="162.56342"
             r="1.8708867" />
          <path
             id="path924"
             d="m 96.124813,88.985973 c -16.0588,10.850292 -26.57719,29.225107 -26.57719,50.147327 v 58.96436 c 0,33.5038 26.97208,60.47589 60.475897,60.47589 16.07776,0 30.64929,-6.21359 41.46,-16.37729 -9.65726,6.52545 -21.31801,10.3296 -33.90025,10.3296 -33.50381,0 -60.476427,-26.97209 -60.476427,-60.47589 v -58.96436 c 0,-17.42661 7.3,-33.08355 19.01797,-44.099637 z"
             style="opacity:1;fill:#335092;fill-opacity:1;stroke:#000000;stroke-width:0;stroke-linecap:round;stroke-linejoin:round;stroke-miterlimit:4;stroke-dasharray:none;stroke-opacity:1;paint-order:stroke fill markers"
             inkscape:connector-curvature="0" />
          <circle
             style="opacity:1;fill:#507cdf;fill-opacity:1;stroke:#000000;stroke-width:0;stroke-linecap:round;stroke-linejoin:round;stroke-miterlimit:4;stroke-dasharray:none;stroke-opacity:1;paint-order:stroke fill markers"
             id="circle926"
             cx="97.51786"
             cy="201.75"
             r="9.8273811" />
          <circle
             r="9.8273811"
             cy="200.99405"
             cx="174.625"
             id="circle928"
             style="opacity:1;fill:#507cdf;fill-opacity:1;stroke:#000000;stroke-width:0;stroke-linecap:round;stroke-linejoin:round;stroke-miterlimit:4;stroke-dasharray:none;stroke-opacity:1;paint-order:stroke fill markers" />
        </g>
        <path
           inkscape:connector-curvature="0"
           id="path932"
           d="m 106.30979,216.82418 c 0,0 24.66509,10.94818 47.43285,0.91234 -25.1394,21.44022 -47.43285,-0.91234 -47.43285,-0.91234 z"
           style="fill:#335092;fill-opacity:1;stroke:#000000;stroke-width:0.16280703px;stroke-linecap:butt;stroke-linejoin:miter;stroke-opacity:1" />
      </g>
      <path
         inkscape:connector-curvature="0"
         id="path1007"
         d="m -254.75595,12.005952 c 0,0 34.7151,-51.404762 83.15476,1.511905 -47.63234,49.892857 -83.15476,-1.511905 -83.15476,-1.511905 z"
         style="fill:#335093;fill-opacity:1;stroke:none;stroke-width:0.27342623px;stroke-linecap:butt;stroke-linejoin:miter;stroke-opacity:1" />
    </g>
  </g>
</svg>
