<?xml version="1.0" encoding="UTF-8" standalone="no"?>
<!-- Created with Inkscape (http://www.inkscape.org/) -->

<svg
   xmlns:dc="http://purl.org/dc/elements/1.1/"
   xmlns:cc="http://creativecommons.org/ns#"
   xmlns:rdf="http://www.w3.org/1999/02/22-rdf-syntax-ns#"
   xmlns:svg="http://www.w3.org/2000/svg"
   xmlns="http://www.w3.org/2000/svg"
   xmlns:sodipodi="http://sodipodi.sourceforge.net/DTD/sodipodi-0.dtd"
   xmlns:inkscape="http://www.inkscape.org/namespaces/inkscape"
   width="210mm"
   height="297mm"
   viewBox="0 0 210 297"
   version="1.1"
   id="svg6955"
   inkscape:version="0.92.3 (unknown)"
   sodipodi:docname="comet.svg"
   inkscape:export-filename="/home/himanshu/himanshu-tiwari-static-images/comet-yellow.svg.png"
   inkscape:export-xdpi="96"
   inkscape:export-ydpi="96">
  <defs
     id="defs6949" />
  <sodipodi:namedview
     id="base"
     pagecolor="#ffffff"
     bordercolor="#666666"
     borderopacity="1.0"
     inkscape:pageopacity="0.0"
     inkscape:pageshadow="2"
     inkscape:zoom="0.70710678"
     inkscape:cx="-108.17294"
     inkscape:cy="317.29169"
     inkscape:document-units="px"
     inkscape:current-layer="layer1"
     showgrid="false"
     showborder="false"
     inkscape:snap-global="false"
     inkscape:window-width="1853"
     inkscape:window-height="1025"
     inkscape:window-x="67"
     inkscape:window-y="27"
     inkscape:window-maximized="1" />
  <metadata
     id="metadata6952">
    <rdf:RDF>
      <cc:Work
         rdf:about="">
        <dc:format>image/svg+xml</dc:format>
        <dc:type
           rdf:resource="http://purl.org/dc/dcmitype/StillImage" />
        <dc:title></dc:title>
      </cc:Work>
    </rdf:RDF>
  </metadata>
  <g
     inkscape:label="Layer 1"
     inkscape:groupmode="layer"
     id="layer1">
    <rect
       style="opacity:1;fill:#000000;fill-opacity:0;stroke:#000000;stroke-width:0;stroke-linecap:round;stroke-linejoin:round;stroke-miterlimit:4;stroke-dasharray:none;stroke-opacity:1;paint-order:stroke fill markers"
       id="rect7504"
       width="153.45833"
       height="43.920834"
       x="-174.88959"
       y="77.395828" />
    <g
       id="g7678"
       inkscape:export-xdpi="96"
       inkscape:export-ydpi="96"
       transform="rotate(90,-105.71229,224.57164)">
      <path
         id="rect7526"
         d="m -115.6556,190.00055 -0.24079,0.24079 -0.48157,-0.48158 c -0.88932,-0.88932 -2.32121,-0.88932 -3.21052,0 -0.88931,0.88931 -0.88931,2.3212 0,3.21051 l 12.03942,12.03941 c 0.88931,0.88931 0.88931,2.3212 0,3.21052 -0.88931,0.88931 -2.3212,0.88931 -3.21051,0 l -11.55784,-11.55784 -2.18419,-2.18419 c -0.88931,-0.88931 -2.32119,-0.88931 -3.2105,0 -0.88932,0.88931 -0.88932,2.32121 0,3.21052 l 2.18418,2.18418 8.58812,8.58812 c 0.88931,0.88931 0.88931,2.32119 0,3.2105 -0.88932,0.88931 -2.32121,0.88931 -3.21052,0 l -9.06969,-9.06968 c -0.88932,-0.88931 -2.3212,-0.88931 -3.21051,0 -0.88931,0.8893 -0.88931,2.32119 0,3.2105 l 14.20651,14.20652 c 0.88932,0.88931 0.88932,2.32119 0,3.2105 -0.71412,0.71412 -1.77758,0.85353 -2.62955,0.42076 l -22.08543,-22.08544 c -0.88931,-0.88931 -2.32119,-0.88931 -3.2105,0 -0.88932,0.88932 -0.88932,2.32121 0,3.21052 l 7.85963,7.85963 -0.0801,0.0801 5.6184,5.61839 c 0.88931,0.88931 0.88931,2.32121 0,3.21052 -0.88931,0.88931 -2.3212,0.88931 -3.21052,0 l -6.09997,-6.09997 c -0.88931,-0.88931 -2.32119,-0.88931 -3.2105,0 -0.88931,0.88931 -0.88931,2.32119 0,3.2105 l 29.61696,29.61697 3.45129,3.4513 15.089411,15.0894 c 0.118198,0.1182 0.237583,0.23441 0.357888,0.34912 0.03607,0.0344 0.07254,0.0678 0.108798,0.10188 0.08215,0.0773 0.164446,0.15406 0.247532,0.22966 0.04911,0.0447 0.0987,0.0886 0.148135,0.13278 0.07509,0.067 0.150527,0.13366 0.226369,0.19941 0.04695,0.0407 0.0942,0.0811 0.1414,0.12134 0.07793,0.0664 0.156183,0.13192 0.234828,0.19689 0.05078,0.0419 0.101574,0.084 0.152693,0.1254 0.07675,0.0621 0.154105,0.1233 0.231535,0.1842 0.0496,0.039 0.09895,0.0783 0.148772,0.11679 0.08891,0.0686 0.178601,0.13588 0.268372,0.20285 0.04127,0.0308 0.08224,0.0624 0.123688,0.0929 0.122295,0.0898 0.245248,0.17787 0.369024,0.26461 0.0593,0.0416 0.119364,0.0818 0.179022,0.12259 0.07293,0.0499 0.145773,0.10004 0.219154,0.14892 0.06205,0.0414 0.124482,0.0817 0.186864,0.12228 0.06999,0.0455 0.13998,0.0909 0.210381,0.13544 0.06519,0.0413 0.130579,0.082 0.196108,0.12243 0.0696,0.0429 0.139421,0.0856 0.20943,0.12761 0.06607,0.0397 0.132324,0.0793 0.198775,0.1182 0.06744,0.0394 0.135127,0.078 0.202852,0.11663 0.07224,0.0412 0.144381,0.0823 0.216968,0.12259 0.05578,0.0309 0.111876,0.0611 0.167887,0.0914 0.08175,0.0443 0.163299,0.0889 0.245493,0.13199 0.0078,0.004 0.01539,0.008 0.02304,0.0118 0.219477,0.11471 0.440827,0.22459 0.663422,0.33077 0.03431,0.0164 0.06862,0.0332 0.102994,0.0494 0.09293,0.0437 0.186384,0.0859 0.279821,0.12807 0.04646,0.021 0.09283,0.0422 0.139362,0.0628 0.09185,0.0407 0.183953,0.0803 0.276214,0.11946 0.04637,0.0197 0.09263,0.0395 0.139048,0.0588 0.09685,0.0403 0.193952,0.0798 0.291271,0.11851 0.03901,0.0156 0.07813,0.0308 0.117257,0.0461 0.105014,0.0411 0.210185,0.0815 0.315718,0.12071 0.01755,0.007 0.03519,0.0128 0.05284,0.0193 0.650521,0.23992 1.31061,0.4456 1.97757,0.61687 0.01098,0.003 0.02196,0.006 0.03294,0.009 0.12508,0.0319 0.250375,0.0624 0.375915,0.0919 0.01804,0.004 0.03607,0.009 0.05411,0.0127 6.632201,1.53856 13.872583,-0.28497 19.061157,-5.47354 1.755522,-1.75553 3.125693,-3.74612 4.111116,-5.86843 0.0791,-0.17036 0.15521,-0.34173 0.229344,-0.51372 0.01947,-0.0452 0.03809,-0.0907 0.05722,-0.13591 0.05572,-0.1319 0.11022,-0.26414 0.163033,-0.39692 0.01973,-0.0496 0.03915,-0.0993 0.05847,-0.14909 0.0527,-0.1356 0.103788,-0.2716 0.15347,-0.40806 0.0143,-0.0393 0.0289,-0.0785 0.04295,-0.11788 0.19608,-0.54908 0.367663,-1.10483 0.515124,-1.66545 0.0051,-0.0194 0.01,-0.0389 0.01505,-0.0583 0.0439,-0.1689 0.08562,-0.33816 0.125098,-0.50791 0.0054,-0.0232 0.01082,-0.0465 0.01614,-0.0698 0.04191,-0.18306 0.08158,-0.36647 0.118356,-0.55039 3.21e-4,-9.8e-4 6.42e-4,-0.003 9.39e-4,-0.004 0.568302,-2.84481 0.523713,-5.78501 -0.132779,-8.61493 -0.0042,-0.018 -0.0084,-0.0361 -0.01269,-0.0541 -0.02949,-0.12555 -0.05996,-0.25083 -0.09186,-0.37592 -0.0028,-0.011 -0.0057,-0.022 -0.0084,-0.0329 -0.170926,-0.66561 -0.376155,-1.32439 -0.615453,-1.97365 -0.007,-0.0189 -0.01367,-0.0378 -0.02069,-0.0567 -0.03926,-0.10555 -0.07965,-0.21071 -0.120708,-0.31573 -0.01529,-0.0391 -0.03055,-0.0782 -0.04609,-0.11726 -0.03876,-0.0973 -0.0782,-0.19442 -0.118512,-0.29126 -0.01933,-0.0465 -0.0391,-0.0927 -0.05879,-0.13905 -0.03922,-0.0922 -0.07881,-0.18441 -0.119455,-0.27622 -0.0206,-0.0466 -0.04189,-0.0929 -0.06286,-0.13936 -0.04221,-0.0934 -0.08439,-0.18689 -0.128076,-0.27982 -0.01617,-0.0344 -0.03301,-0.0686 -0.04939,-0.103 -0.109872,-0.23035 -0.223513,-0.45945 -0.342528,-0.68647 -1.44e-4,-2.7e-4 -3.45e-4,-5e-4 -4.65e-4,-7.8e-4 -0.04296,-0.082 -0.08738,-0.16324 -0.131525,-0.24471 -0.03035,-0.056 -0.06048,-0.11209 -0.09139,-0.16789 -0.04022,-0.0725 -0.08142,-0.14476 -0.122589,-0.21696 -0.03861,-0.0677 -0.07719,-0.13546 -0.116632,-0.20286 -0.03892,-0.0665 -0.07847,-0.13265 -0.1182,-0.19877 -0.04206,-0.07 -0.08463,-0.13981 -0.127606,-0.20943 -0.04046,-0.0656 -0.08115,-0.13094 -0.122431,-0.19612 -0.04456,-0.0704 -0.08994,-0.1404 -0.135443,-0.21037 -0.04058,-0.0623 -0.08094,-0.12482 -0.122275,-0.18686 -0.04888,-0.0734 -0.09899,-0.14627 -0.148925,-0.21916 -0.04088,-0.0597 -0.08101,-0.1197 -0.12259,-0.17902 -0.08763,-0.12506 -0.176678,-0.24925 -0.267438,-0.37278 -0.02956,-0.0402 -0.06026,-0.0799 -0.09013,-0.11993 -0.06698,-0.0898 -0.134209,-0.17945 -0.202851,-0.26837 -0.03847,-0.0498 -0.0778,-0.0992 -0.116789,-0.14878 -0.0609,-0.0774 -0.122013,-0.15478 -0.184197,-0.23153 -0.04142,-0.0511 -0.08343,-0.10188 -0.125411,-0.15269 -0.06497,-0.0786 -0.130567,-0.15692 -0.196894,-0.23483 -0.04023,-0.0473 -0.08062,-0.0944 -0.121334,-0.1414 -0.06575,-0.0759 -0.132355,-0.15125 -0.199403,-0.22637 -0.04414,-0.0494 -0.08808,-0.099 -0.13278,-0.14814 -0.07561,-0.0831 -0.152443,-0.16538 -0.229657,-0.24753 -0.03405,-0.0362 -0.06753,-0.0727 -0.101894,-0.1088 -0.114709,-0.12029 -0.230911,-0.23969 -0.349111,-0.35788 l -15.089402,-15.08941 -3.451303,-3.45129 z m -11.90946,-11.42758 c -0.0276,-0.0271 -0.0563,-0.0535 -0.0859,-0.0793 l -1.74823,-1.52122 c -0.94878,-0.82558 -2.3212,-0.88932 -3.21051,0 -0.88931,0.88931 -0.94878,2.38494 0,3.2105 l 1.74822,1.52124 c 0.94878,0.82556 2.32121,0.88931 3.21052,0 0.86152,-0.86153 0.94415,-2.29206 0.0859,-3.1312 z m 6.35644,6.35645 c -0.0277,-0.0271 -0.0563,-0.0535 -0.0859,-0.0793 l -1.74822,-1.52123 c -0.94878,-0.82557 -2.3212,-0.88931 -3.21052,0 -0.88931,0.88931 -0.94878,2.38494 0,3.21051 l 1.74822,1.52123 c 0.94878,0.82557 2.32121,0.88931 3.21052,0 0.86152,-0.86152 0.94415,-2.29206 0.0859,-3.13119 z m -22.2632,3.42088 c -0.0277,-0.0271 -0.0565,-0.0537 -0.0861,-0.0795 l -1.74806,-1.52107 c -0.94878,-0.82557 -2.3212,-0.88931 -3.21052,0 -0.88931,0.88931 -0.94878,2.38494 0,3.21051 l 1.74807,1.52107 c 0.94878,0.82557 2.3212,0.88931 3.21051,0 0.86152,-0.86152 0.94432,-2.2919 0.0861,-3.13104 z m 4.99306,4.9937 c -0.86646,-0.91158 -2.3212,-0.88931 -3.21052,0 -0.88931,0.88931 -0.86645,2.29891 0,3.21051 l 4.35881,4.5858 c 0.86646,0.91159 2.32119,0.88931 3.2105,0 0.88932,-0.88931 0.86645,-2.29892 0,-3.21052 z"
         style="opacity:1;fill:#ff6600;fill-opacity:1;stroke:#000000;stroke-width:0;stroke-linecap:round;stroke-linejoin:round;stroke-miterlimit:4;stroke-dasharray:none;stroke-opacity:1;paint-order:stroke fill markers"
         inkscape:connector-curvature="0" />
      <rect
         transform="rotate(45)"
         y="215.90454"
         x="35.316486"
         height="12.826484"
         width="60.500145"
         id="rect7500"
         style="opacity:1;fill:#000000;fill-opacity:0;stroke:none;stroke-width:0;stroke-linecap:round;stroke-linejoin:round;stroke-miterlimit:4;stroke-dasharray:none;stroke-opacity:1;paint-order:stroke fill markers" />
      <path
         id="rect7589"
         d="m -72.699655,239.85909 a 15.834576,15.834576 0 0 0 -0.03198,-0.0288 l -16.614083,-16.39022 c -0.895328,-0.88325 -2.321196,-0.88931 -3.210505,0 -0.88932,0.88931 -0.895329,2.32726 0,3.21051 l 8.706468,8.58921 a 15.834576,15.834576 0 0 0 -0.134186,-0.005 c 0.759348,0.89381 0.717345,2.2273 -0.127139,3.07178 -0.658226,0.65823 -1.613369,0.82783 -2.426072,0.51168 l -24.326348,-24.5075 c -0.88601,-0.8926 -2.3212,-0.88932 -3.21052,0 -0.88931,0.88931 -0.886,2.3179 0,3.21051 l 21.508861,21.66907 c 0.589815,0.88281 0.494535,2.0814 -0.286095,2.86203 -0.88931,0.88931 -2.321196,0.88931 -3.210506,0 l -0.488163,-0.48817 a 15.834576,15.834576 0 0 0 -0.01206,0.018 l -1.474988,-1.50508 c -0.880321,-0.89821 -2.321189,-0.88931 -3.210509,0 -0.88931,0.88931 -0.88031,2.31229 0,3.2105 l 2.43829,2.48784 a 15.834576,15.834576 0 0 0 -0.01274,0.0356 l 1.884447,1.88446 c 0.889309,0.88931 0.889309,2.3212 0,3.21051 -0.756095,0.75609 -1.903307,0.86693 -2.776904,0.33735 a 15.834576,15.834576 0 0 0 0.0059,0.10252 L -125.8469,225.20753 c -0.88931,-0.88932 -2.32119,-0.88932 -3.2105,0 -0.88931,0.88931 -0.88932,2.3212 0,3.21051 l 33.303555,33.30357 c 0.162966,0.16295 0.344508,0.2954 0.537235,0.39864 a 15.834576,15.834576 0 0 0 0.12306,0.13278 15.834576,15.834576 0 0 0 22.393621,10e-6 15.834576,15.834576 0 0 0 0.412602,-21.95031 c -0.06465,-0.0852 -0.135655,-0.16712 -0.214139,-0.24455 l -0.167739,-0.16553 a 15.834576,15.834576 0 0 0 -0.03088,-0.0331 z m -29.414265,-29.34435 c -0.87338,-0.90496 -2.26506,-1.02418 -3.20503,-0.18859 -0.93996,0.8356 -1.06164,2.30006 -0.18827,3.20503 l 2.72235,2.8208 c 0.87338,0.90495 2.26506,1.02417 3.205022,0.18858 0.939969,-0.83559 1.061637,-2.30004 0.188276,-3.20502 z m 7.076597,7.09855 c -0.870273,-0.90794 -2.231435,-1.09545 -3.197498,-0.29017 -0.966053,0.80529 -1.16028,2.2894 -0.290006,3.19735 l 1.603371,1.67298 c 0.870273,0.90794 2.231444,1.09545 3.197498,0.29016 0.966063,-0.80529 1.160289,-2.2894 0.290015,-3.19734 z m -13.487117,12.03612 -4.52905,-4.41773 c -0.90029,-0.87821 -2.35324,-0.80095 -3.20831,0.12133 -0.85508,0.92229 -0.77877,2.32992 0.12149,3.20815 l 4.52889,4.41791 c 0.90029,0.87819 2.35324,0.80095 3.20832,-0.12134 0.85507,-0.92229 0.77891,-2.33008 -0.12134,-3.20832 z m 5.4552,5.50976 -1.42372,-1.40083 c -0.89645,-0.88212 -2.3906,-0.68056 -3.19782,0.2839 -0.8072,0.96444 -0.6127,2.31584 0.28375,3.19796 l 1.42356,1.40069 c 0.89646,0.8821 2.39076,0.6807 3.19797,-0.28374 0.80721,-0.96446 0.6127,-2.31586 -0.28374,-3.19798 z"
         style="opacity:1;fill:#d40000;fill-opacity:1;stroke:#000000;stroke-width:0;stroke-linecap:round;stroke-linejoin:round;stroke-miterlimit:4;stroke-dasharray:none;stroke-opacity:1;paint-order:stroke fill markers"
         inkscape:connector-curvature="0" />
    </g>
  </g>
</svg>
